<svg width="24" height="24" viewBox="0 0 24 24" fill="none" xmlns="http://www.w3.org/2000/svg">
<path d="M19.9688 2.48572H4.03125C2.93297 2.48572 2.03906 3.37962 2.03906 4.47791V15.2592C2.03906 16.3574 2.93297 17.2513 4.03125 17.2513H9.49453V21.0923H6.80156C6.47813 21.0923 6.21563 21.3548 6.21563 21.6782C6.21563 22.0017 6.47813 22.2642 6.80156 22.2642H17.1984C17.5219 22.2642 17.7844 22.0017 17.7844 21.6782C17.7844 21.3548 17.5219 21.0923 17.1984 21.0923H14.5055V17.2513H19.9688C21.067 17.2513 21.9609 16.3574 21.9609 15.2592V4.47791C21.9609 3.37962 21.067 2.48572 19.9688 2.48572ZM19.2792 10.3401C19.2792 10.9968 18.7467 11.5293 18.09 11.5293C17.4333 11.5293 16.9008 10.9968 16.9008 10.3401C16.9008 9.68337 17.4333 9.15087 18.09 9.15087C18.7467 9.15087 19.2792 9.68337 19.2792 10.3401ZM13.1508 13.0556C13.2197 13.236 13.1958 13.4385 13.0866 13.5974C12.9773 13.7568 12.7969 13.852 12.6038 13.852H11.3962C11.2031 13.852 11.0227 13.7568 10.9134 13.5974C10.8042 13.4385 10.7803 13.236 10.8492 13.0556L11.1666 12.2301C10.2886 12.5812 9.27797 11.9718 9.27797 10.8623C9.27797 9.66978 10.9908 8.44634 11.6991 7.99166C11.8823 7.874 12.1177 7.874 12.3009 7.99166C13.0092 8.44634 14.722 9.66978 14.722 10.8623C14.722 11.9718 13.7114 12.5812 12.8334 12.2301L13.1508 13.0556ZM8.75531 5.53259C8.43187 5.53259 8.16937 5.27009 8.16937 4.94666C8.16937 4.62322 8.43187 4.36072 8.75531 4.36072H15.2447C15.5681 4.36072 15.8306 4.62322 15.8306 4.94666C15.8306 5.27009 15.5681 5.53259 15.2447 5.53259H8.75531ZM7.09922 10.3401C7.09922 10.9968 6.56672 11.5293 5.91 11.5293C5.25328 11.5293 4.72078 10.9968 4.72078 10.3401C4.72078 9.68337 5.25328 9.15087 5.91 9.15087C6.56672 9.15087 7.09922 9.68337 7.09922 10.3401ZM13.3336 21.0923H10.6659V17.2513H13.3336V21.0923Z" fill="white"/>
</svg>
