<svg width="24" height="24" viewBox="0 0 24 24" fill="none" xmlns="http://www.w3.org/2000/svg">
<g clip-path="url(#clip0_109_2853)">
<path d="M18.1547 12.7022C18.4444 11.9423 18.6248 11.1483 18.6933 10.3303C19.3856 1.96125 8.93906 -2.45532 3.43125 3.80062C-1.99782 9.88406 3.34687 19.6092 11.4694 18.2095C11.4694 18.225 11.4689 18.24 11.4689 18.2555C11.4689 21.3703 14.003 23.9044 17.1178 23.9044C20.2327 23.9044 22.7667 21.3703 22.7667 18.2555C22.7667 15.495 20.7759 13.1906 18.1547 12.7022ZM3.50672 5.66156C3.76922 5.94937 4.14281 6.12609 4.55203 6.13218L6.46875 6.16171H6.49172C6.59156 6.16171 6.68953 6.15046 6.78468 6.13078L7.78453 7.42265C7.70625 7.54312 7.64203 7.67531 7.59609 7.81734L7.10062 9.34171C7.05515 9.48234 7.02937 9.62484 7.0214 9.76734L5.53265 10.1728C5.46937 10.095 5.39812 10.0223 5.31797 9.95765L3.82593 8.7539C3.44156 8.44406 2.93859 8.35734 2.48484 8.49984C2.63343 7.47281 2.98875 6.51187 3.50718 5.66062L3.50672 5.66156ZM17.4736 8.50125C17.0198 8.35828 16.5169 8.445 16.1325 8.75484L14.6405 9.95859C14.5598 10.0233 14.4891 10.0959 14.4258 10.1737L12.9366 9.76828C12.9286 9.62624 12.9028 9.48328 12.8573 9.34265L12.3619 7.81828C12.3159 7.67624 12.2517 7.54406 12.1734 7.42359L13.1733 6.13171C13.2684 6.1514 13.3659 6.16265 13.4662 6.16265H13.4892L15.4059 6.13312C15.8152 6.12656 16.1887 5.94984 16.4512 5.66203C16.9702 6.51328 17.325 7.47468 17.4741 8.50171L17.4736 8.50125ZM16.5314 21.1444V20.76C16.1109 20.6109 15.7622 20.3048 15.577 19.8984C15.4434 19.6041 15.5733 19.2567 15.8681 19.1227C16.1625 18.9886 16.5098 19.1189 16.6439 19.4133C16.7189 19.5778 16.9092 19.6884 17.1173 19.6884C17.3967 19.6884 17.6236 19.4986 17.6236 19.2652C17.6236 18.9567 17.0714 18.8433 17.0086 18.8311C16.0556 18.6506 15.4397 18.0286 15.4397 17.2462C15.4397 16.5623 15.8948 15.9778 16.5314 15.7509V15.3666C16.5314 15.0806 16.7358 14.8434 17.0058 14.7914C17.0419 14.7844 17.0794 14.7806 17.1173 14.7806C17.4412 14.7806 17.7033 15.0427 17.7033 15.3666V15.7514C18.1242 15.9 18.473 16.2061 18.6581 16.6125C18.7922 16.9069 18.6619 17.2547 18.367 17.3883C18.0727 17.5223 17.7253 17.3925 17.5912 17.0977C17.5162 16.9331 17.3259 16.8225 17.1173 16.8225C16.8384 16.8225 16.6116 17.0123 16.6116 17.2462C16.6116 17.5542 17.1637 17.6677 17.2266 17.6798C18.1795 17.8603 18.7955 18.4828 18.7955 19.2652C18.7955 19.9486 18.3403 20.5331 17.7033 20.76V21.1444C17.7033 21.4683 17.4412 21.7303 17.1173 21.7303C16.7934 21.7303 16.5314 21.4683 16.5314 21.1444ZM10.9561 12.1444L12.2531 11.2022C12.3792 11.1108 12.4889 11.0039 12.5822 10.8867L14.1197 11.3058C14.1352 11.4052 14.16 11.5041 14.197 11.6011L14.7755 13.1161C13.7325 13.5933 12.8587 14.3789 12.2723 15.3558L10.8295 14.3077C10.7456 14.2467 10.6566 14.197 10.5652 14.1558V12.3553C10.702 12.3037 10.8337 12.2344 10.9566 12.1448L10.9561 12.1444ZM11.5861 2.19C11.3869 2.54156 11.3395 2.96906 11.4769 3.37031L12.098 5.18437C12.1298 5.27812 12.1716 5.36625 12.2203 5.44875L11.2284 6.73031C11.085 6.69046 10.935 6.66937 10.7808 6.66937H9.17765C9.02343 6.66937 8.87297 6.69046 8.73 6.73031L7.73812 5.44875C7.78687 5.36578 7.82859 5.27812 7.86047 5.18437L8.48156 3.37031C8.6189 2.96906 8.57156 2.54156 8.37234 2.19C8.89031 2.0775 9.42797 2.01796 9.97968 2.01796C10.5314 2.01796 11.0686 2.07796 11.587 2.19H11.5861ZM4.04203 14.2875C4.5075 14.1839 4.90031 13.8544 5.07703 13.3917L5.76047 11.6006C5.7975 11.5036 5.82234 11.4047 5.83781 11.3053L7.37531 10.8862C7.46812 11.0039 7.57828 11.1103 7.70437 11.2017L9.0014 12.1439C9.12422 12.233 9.25593 12.3023 9.39281 12.3544V14.1548C9.30093 14.1956 9.21234 14.2458 9.12843 14.3062L7.57734 15.4331C7.21078 15.6994 6.99984 16.1119 6.98297 16.545C5.82515 16.0444 4.81593 15.263 4.0425 14.2866L4.04203 14.2875Z" fill="white"/>
</g>
<defs>
<clipPath id="clip0_109_2853">
<rect width="24" height="24" fill="white" transform="translate(0 0.375)"/>
</clipPath>
</defs>
</svg>
