<svg width="24" height="24" viewBox="0 0 24 24" fill="none" xmlns="http://www.w3.org/2000/svg">
<g clip-path="url(#clip0_109_2868)">
<g clip-path="url(#clip1_109_2868)">
<path d="M23.2538 8.13506C23.5191 7.81959 23.6011 7.39725 23.4741 7.00537C23.3466 6.6135 23.0321 6.32006 22.6322 6.22068L21.5499 5.95209C21.5461 5.95115 21.5433 5.94881 21.5414 5.946L20.9517 4.99959C20.7338 4.6499 20.3574 4.44131 19.9453 4.44131C19.5333 4.44131 19.1864 4.63443 18.9656 4.96022C18.6117 4.63818 18.1411 4.44131 17.626 4.44131H16.1738C16.1803 4.28756 16.1602 4.13146 16.111 3.97959C15.9708 3.54881 15.6249 3.22678 15.1856 3.11756L13.8919 2.79646C13.8586 2.78803 13.8305 2.7674 13.8122 2.73834L13.1072 1.60725C12.8677 1.22287 12.4542 0.993652 12.0014 0.993652C11.5486 0.993652 11.1352 1.22287 10.8956 1.60725L10.1902 2.73834C10.1719 2.7674 10.1438 2.78803 10.1105 2.79646L8.81674 3.11756C8.37705 3.22678 8.03112 3.54881 7.89143 3.97959C7.84221 4.13146 7.82205 4.28756 7.82862 4.44131H6.37643C5.86127 4.44131 5.39065 4.63818 5.03674 4.96022C4.81549 4.63443 4.45315 4.44131 4.05705 4.44131C3.64502 4.44131 3.26862 4.6499 3.05065 4.99959L2.46096 5.94553C2.45909 5.94881 2.4558 5.95068 2.45252 5.95162L1.37018 6.22021C0.970336 6.31959 0.655336 6.61256 0.527836 7.0049C0.400336 7.39678 0.482836 7.81912 0.748149 8.13459L1.4658 8.98818C1.46815 8.991 1.46909 8.99475 1.46909 8.99803L1.39034 10.1104C1.36127 10.5215 1.54268 10.9115 1.87643 11.1538C2.08315 11.3043 2.32596 11.3812 2.57159 11.3812C2.72205 11.3812 2.87346 11.3521 3.01877 11.2935L4.05237 10.8749C4.05565 10.8735 4.0594 10.8735 4.06268 10.8749L4.38471 11.0052V12.3088H4.09221C2.96112 12.3088 2.04096 13.229 2.04096 14.3601V19.2637C2.04096 20.3947 2.96112 21.3149 4.09221 21.3149H4.38471V21.764C4.38471 22.8622 5.27862 23.7562 6.3769 23.7562H17.6269C18.7252 23.7562 19.6191 22.8622 19.6191 21.764V21.3149H19.9116C21.0427 21.3149 21.9628 20.3947 21.9628 19.2637V14.3601C21.9628 13.229 21.0427 12.3088 19.9116 12.3088H19.6191V11.0052L19.9411 10.8749C19.9444 10.8735 19.9481 10.8735 19.9514 10.8749L20.985 11.2935C21.1299 11.3521 21.2817 11.3812 21.4322 11.3812C21.6778 11.3812 21.9206 11.3038 22.1274 11.1538C22.4606 10.9115 22.6425 10.5215 22.6135 10.1104L22.5347 8.99803C22.5347 8.99428 22.5356 8.991 22.538 8.98818L23.2556 8.13459L23.2538 8.13506ZM6.77018 14.728C7.07627 14.6235 7.40955 14.7871 7.51362 15.0937L8.00299 16.5271L8.4919 15.0937C8.57252 14.856 8.79565 14.6966 9.04643 14.6966C9.29721 14.6966 9.51987 14.856 9.60096 15.0937L10.0899 16.5271L10.5788 15.0937C10.6833 14.7871 11.0161 14.6235 11.3227 14.728C11.6288 14.8326 11.7924 15.1654 11.6878 15.4719L10.6444 18.531C10.5633 18.7682 10.3406 18.9276 10.0899 18.9276C9.83909 18.9276 9.61643 18.7682 9.53534 18.531L9.04643 17.0976L8.55752 18.531C8.47643 18.7682 8.2533 18.9276 8.00299 18.9276C7.75268 18.9276 7.52909 18.7682 7.44799 18.531L6.40455 15.4719C6.30002 15.1654 6.46362 14.8326 6.77018 14.728ZM12.0488 18.3416V15.2826C12.0488 14.9591 12.3108 14.6966 12.6347 14.6966C12.9586 14.6966 13.2206 14.9591 13.2206 15.2826V18.3416C13.2206 18.6655 12.9581 18.9276 12.6347 18.9276C12.3113 18.9276 12.0488 18.6655 12.0488 18.3416ZM17.0644 18.3416C17.0644 18.5971 16.8989 18.823 16.6552 18.9004C16.5971 18.9187 16.5375 18.9276 16.4785 18.9276C16.2914 18.9276 16.1114 18.838 15.9994 18.6791L14.9081 17.1313V18.3416C14.9081 18.6655 14.6461 18.9276 14.3222 18.9276C13.9983 18.9276 13.7363 18.6655 13.7363 18.3416V15.2826C13.7363 15.0271 13.9017 14.8012 14.1455 14.7243C14.3888 14.6469 14.6541 14.7365 14.8013 14.9451L15.8925 16.4933V15.2826C15.8925 14.9591 16.1546 14.6966 16.4785 14.6966C16.8024 14.6966 17.0644 14.9591 17.0644 15.2826V18.3416ZM18.4453 21.764C18.4453 22.2163 18.0774 22.5843 17.625 22.5843H6.37502C5.92268 22.5843 5.55471 22.2163 5.55471 21.764V21.3149H18.4453V21.764ZM5.55471 12.3093V11.3812C5.79565 11.3783 6.03377 11.3019 6.23674 11.1543C6.57002 10.9119 6.7519 10.5219 6.72284 10.1108L6.64409 8.9985C6.64409 8.99475 6.64502 8.99146 6.64737 8.98865L7.36502 8.13506C7.63034 7.81959 7.71237 7.39725 7.58534 7.00537C7.45784 6.6135 7.14331 6.32006 6.74299 6.22068L5.70471 5.96287C5.8533 5.75146 6.09846 5.61318 6.37549 5.61318H8.46237L8.99065 6.24131C9.01268 6.26756 9.02346 6.30084 9.02112 6.33506L8.9269 7.66443C8.89502 8.11631 9.09424 8.54475 9.4608 8.811C9.82737 9.07725 10.2966 9.13443 10.7161 8.96428L11.9513 8.46365C11.9831 8.451 12.0183 8.451 12.0497 8.46365L13.2849 8.96428C13.4442 9.02896 13.6106 9.06084 13.7761 9.06084C14.0461 9.06084 14.3128 8.976 14.5402 8.811C14.9067 8.54475 15.106 8.11631 15.0741 7.66443L14.9799 6.33459C14.9775 6.30037 14.9883 6.26709 15.0103 6.24084L15.5386 5.61271H17.6255C17.903 5.61271 18.1477 5.75146 18.2963 5.9624L17.258 6.22021C16.8581 6.31959 16.5431 6.61256 16.4156 7.0049C16.2881 7.39678 16.3706 7.81912 16.636 8.13459L17.3536 8.98818C17.356 8.991 17.3574 8.99475 17.3569 8.99803L17.2781 10.1104C17.2491 10.5215 17.4305 10.9115 17.7642 11.1538C17.9672 11.3015 18.2049 11.3779 18.4463 11.3807V12.3088H5.55471V12.3093Z" fill="white"/>
<path d="M14.8776 10.0945H9.12231C8.79888 10.0945 8.53638 10.357 8.53638 10.6804C8.53638 11.0039 8.79888 11.2664 9.12231 11.2664H14.8776C15.2011 11.2664 15.4636 11.0039 15.4636 10.6804C15.4636 10.357 15.2011 10.0945 14.8776 10.0945Z" fill="white"/>
</g>
</g>
<defs>
<clipPath id="clip0_109_2868">
<rect width="24" height="24" fill="white"/>
</clipPath>
<clipPath id="clip1_109_2868">
<rect width="24" height="24" fill="white" transform="translate(0 0.375)"/>
</clipPath>
</defs>
</svg>
