<svg width="24" height="24" viewBox="0 0 24 24" fill="none" xmlns="http://www.w3.org/2000/svg">
<g clip-path="url(#clip0_109_2863)">
<path d="M8.42269 11.4933C8.42269 11.3297 8.29004 11.197 8.12691 11.197H7.65723V11.7891H8.12691C8.29004 11.7891 8.42269 11.6564 8.42269 11.4933Z" fill="white"/>
<path d="M8.89144 13.2567C8.89144 13.0936 8.75879 12.9609 8.59566 12.9609H7.65723V13.553H8.59566C8.75879 13.553 8.89144 13.4203 8.89144 13.2567Z" fill="white"/>
<path d="M19.2305 7.87224H18.0431V4.13208C18.0431 3.03333 17.1492 2.13989 16.051 2.13989H13.7827C13.7827 2.13989 13.7813 2.13989 13.7808 2.13989H10.2197C10.2197 2.13989 10.2183 2.13989 10.2178 2.13989H7.94955C6.85127 2.13989 5.95736 3.03333 5.95736 4.13208V7.87224H4.77002C3.67174 7.87224 2.77783 8.76614 2.77783 9.86442V14.8857C2.77783 15.984 3.67174 16.8779 4.77002 16.8779H5.95736V20.618C5.95736 21.7168 6.85127 22.6102 7.94955 22.6102H16.0514C17.1497 22.6102 18.0436 21.7168 18.0436 20.618V16.8779H19.231C20.3292 16.8779 21.2231 15.984 21.2231 14.8857V9.86442C21.2231 8.76614 20.3292 7.87224 19.231 7.87224H19.2305ZM12.5119 11.7891C12.8353 11.7891 13.0978 12.0516 13.0978 12.375C13.0978 12.6985 12.8353 12.961 12.5119 12.961H11.6705V13.553H12.8199C13.1438 13.553 13.4058 13.8155 13.4058 14.139C13.4058 14.4624 13.1438 14.7249 12.8199 14.7249H11.0846C10.7606 14.7249 10.4986 14.4624 10.4986 14.139V10.6111C10.4986 10.2877 10.7606 10.0252 11.0846 10.0252H12.8199C13.1438 10.0252 13.4058 10.2877 13.4058 10.6111C13.4058 10.9346 13.1438 11.1971 12.8199 11.1971H11.6705V11.7891H12.5119ZM9.59439 11.4933C9.59439 11.7019 9.55033 11.9002 9.47158 12.0802C9.83064 12.3479 10.0631 12.7758 10.0631 13.2568C10.0631 14.0663 9.40455 14.7249 8.59549 14.7249H7.07111C6.74768 14.7249 6.48518 14.4624 6.48518 14.139V10.6111C6.48518 10.2877 6.74768 10.0252 7.07111 10.0252H8.12674C8.9358 10.0252 9.59439 10.6838 9.59439 11.4933ZM16.2019 14.139C16.2019 14.4624 15.9394 14.7249 15.616 14.7249C15.2925 14.7249 15.03 14.4624 15.03 14.139V11.1971H14.3025C13.9791 11.1971 13.7166 10.9346 13.7166 10.6111C13.7166 10.2877 13.9791 10.0252 14.3025 10.0252H16.9289C17.2524 10.0252 17.5149 10.2877 17.5149 10.6111C17.5149 10.9346 17.2524 11.1971 16.9289 11.1971H16.2019V14.139ZM7.12877 4.13208C7.12877 3.67974 7.49674 3.31177 7.94908 3.31177H9.6333V3.49411C9.6333 4.07583 10.1063 4.5488 10.688 4.5488H13.3116C13.8933 4.5488 14.3663 4.07583 14.3663 3.49411V3.31177H16.0505C16.5028 3.31177 16.8708 3.67974 16.8708 4.13208V7.87224H7.12877V4.13208ZM16.8713 20.618C16.8713 21.0704 16.5033 21.4383 16.051 21.4383H7.94908C7.49674 21.4383 7.12877 21.0704 7.12877 20.618V16.8779H16.8713V20.618Z" fill="white"/>
</g>
<defs>
<clipPath id="clip0_109_2863">
<rect width="24" height="24" fill="white"/>
</clipPath>
</defs>
</svg>
