<svg width="24" height="24" viewBox="0 0 24 24" fill="none" xmlns="http://www.w3.org/2000/svg">
<g clip-path="url(#clip0_109_2855)">
<path d="M21.6271 5.89546C21.3398 5.39811 20.8762 5.04186 20.3212 4.89327L14.5405 3.34452C13.9855 3.19592 13.4062 3.27233 12.9084 3.55921C12.411 3.84655 12.0548 4.31014 11.9062 4.86514L10.9321 8.50077H4.07617C2.97789 8.50077 2.08398 9.39468 2.08398 10.493V19.4873C2.08398 20.5856 2.97789 21.4795 4.07617 21.4795H18.8812C19.9799 21.4795 20.8734 20.5856 20.8734 19.4873V11.1426L21.8418 7.52764C21.9904 6.97264 21.914 6.3928 21.6271 5.89546ZM13.0377 5.16842C13.1052 4.91577 13.2674 4.70483 13.4938 4.57405C13.7202 4.44327 13.9841 4.40858 14.2368 4.47608L20.0174 6.02483C20.2701 6.09233 20.481 6.25452 20.6118 6.48092C20.7426 6.70733 20.7773 6.97124 20.7098 7.22389L19.161 13.0045C19.0935 13.2572 18.9313 13.4681 18.7049 13.5989C18.4785 13.7297 18.2146 13.7644 17.962 13.6969L12.1813 12.1481C11.9287 12.0806 11.7177 11.9184 11.587 11.692C11.4562 11.4656 11.4215 11.2017 11.489 10.949L13.0377 5.16842ZM6.42977 14.9897C5.24805 14.9897 4.28617 14.0283 4.28617 12.8461C4.28617 11.6639 5.24805 10.703 6.42977 10.703C7.61148 10.703 8.57289 11.6644 8.57289 12.8461C8.57289 14.0278 7.61148 14.9897 6.42977 14.9897ZM7.44414 16.6059C7.44414 16.9294 7.18164 17.1919 6.8582 17.1919H4.90023C4.5768 17.1919 4.3143 16.9294 4.3143 16.6059C4.3143 16.2825 4.5768 16.02 4.90023 16.02H6.8582C7.18164 16.02 7.44414 16.282 7.44414 16.6059ZM4.90023 18.2503H9.61211C9.93602 18.2503 10.198 18.5128 10.198 18.8362C10.198 19.1597 9.93602 19.4222 9.61211 19.4222H4.90023C4.5768 19.4222 4.3143 19.1601 4.3143 18.8362C4.3143 18.5123 4.5768 18.2503 4.90023 18.2503ZM8.63336 17.1919C8.30945 17.1919 8.04742 16.9294 8.04742 16.6059C8.04742 16.2825 8.30945 16.02 8.63336 16.02H10.5913C10.9148 16.02 11.1773 16.282 11.1773 16.6059C11.1773 16.9298 10.9148 17.1919 10.5913 17.1919H8.63336ZM14.9104 16.6059C14.9104 16.9294 14.6479 17.1919 14.3245 17.1919H12.3665C12.0426 17.1919 11.7805 16.9294 11.7805 16.6059C11.7805 16.2825 12.0426 16.02 12.3665 16.02H14.3245C14.6479 16.02 14.9104 16.282 14.9104 16.6059ZM16.0996 16.02H18.0576C18.381 16.02 18.6435 16.282 18.6435 16.6059C18.6435 16.9298 18.381 17.1919 18.0576 17.1919H16.0996C15.7757 17.1919 15.5137 16.9294 15.5137 16.6059C15.5137 16.2825 15.7757 16.02 16.0996 16.02Z" fill="white"/>
<path d="M19.4294 8.29227C19.6265 7.55703 19.1903 6.80119 18.455 6.60406C17.7198 6.40693 16.964 6.84316 16.7668 7.5784C16.5697 8.31364 17.0059 9.06947 17.7412 9.2666C18.4764 9.46373 19.2323 9.02751 19.4294 8.29227Z" fill="white"/>
<path d="M14.9708 11.316C15.5653 10.8403 15.6615 9.97275 15.1858 9.37832C14.7101 8.78389 13.8426 8.68763 13.2482 9.16333C12.6538 9.63903 12.5575 10.5065 13.0332 11.101C13.5089 11.6954 14.3764 11.7917 14.9708 11.316Z" fill="white"/>
</g>
<defs>
<clipPath id="clip0_109_2855">
<rect width="24" height="24" fill="white"/>
</clipPath>
</defs>
</svg>
