<svg width="24" height="24" viewBox="0 0 24 24" fill="none" xmlns="http://www.w3.org/2000/svg">
<g clip-path="url(#clip0_109_2860)">
<path d="M19.2305 14.1605H17.9297C18.2742 13.7433 18.5761 13.2891 18.8278 12.8048C21.5339 7.84313 17.6039 1.45641 12 1.58391C6.39703 1.45641 2.46562 7.84313 5.17219 12.8044C5.42391 13.2886 5.72578 13.7428 6.07031 14.16H4.76953C3.67125 14.16 2.77734 15.0539 2.77734 16.1522V21.1734C2.77734 22.2717 3.67125 23.1656 4.76953 23.1656H19.2305C20.3288 23.1656 21.2227 22.2717 21.2227 21.1734V16.1522C21.2227 15.0539 20.3288 14.16 19.2305 14.16V14.1605ZM14.812 6.345C14.8852 6.35719 14.9597 6.36422 15.0356 6.36422H15.0567L16.725 6.33844C17.0672 6.33329 17.3822 6.19875 17.6189 5.9761C18.0192 6.65579 18.2995 7.41375 18.4313 8.22141C18.0445 8.13704 17.6316 8.22657 17.3091 8.48672L16.0102 9.53438C15.9492 9.5836 15.8939 9.6375 15.8438 9.69469L14.6461 9.36844C14.6358 9.25641 14.6138 9.14438 14.5781 9.03375L14.1469 7.70672C14.1103 7.59469 14.0616 7.48922 14.003 7.39172L14.8125 6.34594L14.812 6.345ZM17.0358 13.4039C16.8127 13.6753 16.5684 13.928 16.3055 14.16H13.9467L12.7852 13.3158C12.7214 13.2694 12.6548 13.23 12.5859 13.1967V11.73C12.6938 11.685 12.7978 11.6273 12.8953 11.5561L14.0241 10.7358C14.1253 10.6622 14.2153 10.5778 14.2931 10.4859L15.5372 10.8248C15.5517 10.9003 15.5723 10.9748 15.6005 11.0484L16.1953 12.6075C16.3434 12.9956 16.6566 13.2825 17.0348 13.4034L17.0358 13.4039ZM10.2272 5.46094L10.7677 3.88172C10.883 3.54563 10.8572 3.18891 10.7137 2.88329C11.1295 2.79985 11.5598 2.75579 12 2.75579C12.4402 2.75579 12.87 2.79985 13.2863 2.88329C13.1428 3.18938 13.1175 3.54563 13.2323 3.88172L13.7728 5.46094C13.7967 5.53079 13.8258 5.59735 13.86 5.66063L13.0584 6.6961C12.9422 6.66797 12.8217 6.65297 12.698 6.65297H11.3025C11.1788 6.65297 11.0583 6.66797 10.942 6.69563L10.1405 5.66016C10.1742 5.59688 10.2038 5.53032 10.2277 5.46047L10.2272 5.46094ZM11.4141 13.1967C11.3452 13.2305 11.2786 13.2698 11.2148 13.3158L10.0533 14.16H7.69453C7.43156 13.928 7.18688 13.6748 6.96422 13.4039C7.3425 13.283 7.65562 12.9966 7.80375 12.608L8.39859 11.0489C8.42672 10.9753 8.44734 10.9003 8.46187 10.8253L9.70594 10.4864C9.78422 10.5788 9.87375 10.6627 9.975 10.7363L11.1038 11.5566C11.2017 11.6278 11.3053 11.6855 11.4131 11.7305V13.1972L11.4141 13.1967ZM5.56875 8.22047C5.70047 7.41282 5.98078 6.65485 6.38109 5.97516C6.61781 6.19782 6.93281 6.33235 7.275 6.3375L8.94328 6.36329H8.96438C9.04031 6.36329 9.11484 6.35625 9.18797 6.34407L9.9975 7.38985C9.93891 7.48782 9.88969 7.59282 9.85359 7.70485L9.42234 9.03188C9.38625 9.1425 9.36469 9.25454 9.35437 9.36657L8.15672 9.69282C8.10656 9.63563 8.05125 9.58172 7.99031 9.5325L6.69141 8.48485C6.36891 8.22469 5.95594 8.13516 5.56922 8.21954L5.56875 8.22047ZM8.13937 21.0127H6.7575C6.43406 21.0127 6.17156 20.7502 6.17156 20.4267V16.8989C6.19078 16.1269 7.32422 16.1255 7.34344 16.8989V19.8408H8.13937C8.91234 19.8605 8.91187 20.993 8.13937 21.0127ZM10.3791 20.4267C10.3598 21.1983 9.22687 21.2006 9.20719 20.4267V16.8989C9.20719 16.6275 9.39141 16.3959 9.64922 16.3308C9.97078 16.245 10.312 16.4663 10.3683 16.7864C10.3608 16.785 10.3533 16.7831 10.3458 16.7817C10.3533 16.7836 10.3612 16.7855 10.3687 16.7873C10.3753 16.8234 10.3791 16.8605 10.3791 16.8989V20.4267ZM14.408 17.0878L13.2042 20.6156C13.1236 20.8528 12.9005 21.0127 12.6497 21.0127C12.3989 21.0127 12.1762 20.8528 12.0952 20.6156L10.8919 17.0878C10.868 17.018 10.8581 16.9467 10.8614 16.8769C10.8802 16.2417 11.7923 16.0978 12.0009 16.7095C12.0014 16.7114 12.0863 16.9584 12.0863 16.9603H12.0867L12.6497 18.6117C12.6497 18.6117 13.2473 16.86 13.2473 16.8595L13.2984 16.7095C13.5656 15.9863 14.6377 16.3481 14.408 17.0878ZM16.9345 18.0769C17.7075 18.0966 17.707 19.2291 16.9345 19.2488H16.0927V19.8408H17.2425C18.0145 19.8595 18.0155 20.9934 17.2425 21.0127H15.5067C15.1833 21.0127 14.9208 20.7502 14.9208 20.4267V16.8989C14.9208 16.575 15.1833 16.313 15.5067 16.313H17.2425C18.015 16.3331 18.0155 17.4647 17.2425 17.4848H16.0927V18.0769H16.9345Z" fill="white"/>
</g>
<defs>
<clipPath id="clip0_109_2860">
<rect width="24" height="24" fill="white"/>
</clipPath>
</defs>
</svg>
