<svg width="24" height="25" viewBox="0 0 24 25" fill="none" xmlns="http://www.w3.org/2000/svg">
<path d="M11.9986 1.1001C5.70149 1.1001 0.600098 6.20453 0.600098 12.4986C0.600097 18.7957 5.70149 23.9001 11.9986 23.9001C18.2957 23.9001 23.4001 18.7957 23.4001 12.4986C23.4001 6.20453 18.2957 1.1001 11.9986 1.1001ZM18.7327 10.8325L15.789 13.6852C15.7283 13.7459 15.6979 13.8369 15.6979 13.9279L16.3656 17.9034C16.4263 18.298 16.0014 18.6014 15.6372 18.4194L12.0562 16.5075C11.9652 16.4771 11.8741 16.4771 11.7831 16.5075L8.26281 18.389C7.89864 18.5711 7.47377 18.2676 7.53447 17.8731L8.23246 13.8369C8.26281 13.7459 8.23246 13.6548 8.14142 13.5941L5.25842 10.8022C4.95494 10.529 5.13702 10.0131 5.53155 9.95243L9.56775 9.37584C9.65879 9.37584 9.74983 9.31514 9.78018 9.2241L11.5707 5.58241C11.7528 5.21824 12.2687 5.21824 12.4508 5.58241L14.2716 9.25444C14.3019 9.34548 14.393 9.40618 14.484 9.40618L18.4595 9.98279C18.8844 10.0435 19.0361 10.529 18.7327 10.8325Z" fill="#E2FF30"/>
</svg>
