<svg width="32" height="32" viewBox="0 0 32 32" fill="none" xmlns="http://www.w3.org/2000/svg">
<g clip-path="url(#clip0_5533_27611)">
<path d="M27.8995 8.10057C25.2553 5.45625 21.7396 4 18 4C15.3183 4 12.7411 4.75063 10.5 6.17675V5.5C10.5 5.36738 10.4473 5.24025 10.3536 5.14644L5.35357 0.146441C5.21063 0.00350392 4.99557 -0.0393711 4.8087 0.0381289C4.62188 0.115504 4.50001 0.297816 4.50001 0.500004V3.63694L3.3272 2.62194C3.12895 2.45032 2.83188 2.46113 2.64645 2.64644C2.46107 2.83188 2.45032 3.129 2.62188 3.32725L3.63688 4.5H0.500009C0.297759 4.5 0.115446 4.62182 0.0380711 4.80863C-0.0393039 4.99544 0.00344609 5.21057 0.146446 5.35357L5.14645 10.3536C5.2402 10.4473 5.36738 10.5 5.50001 10.5H6.17663C4.75007 12.7402 4.00001 15.3134 4.00001 18C4.00001 21.7396 5.45626 25.2553 8.10051 27.8995C10.7448 30.5438 14.2605 32 18 32C21.7395 32 25.2553 30.5438 27.8995 27.8995C30.5438 25.2553 32 21.7396 32 18C32 14.2604 30.5438 10.7448 27.8995 8.10057ZM15.7914 14.7309C16.0728 15.0242 16.0691 15.4917 15.7804 15.7804C15.4916 16.069 15.0242 16.0727 14.7309 15.7914L7.9127 7.91269L15.7914 14.7309ZM5.50001 1.70713L9.50001 5.70713V7.96394L5.50001 4.50232V1.70713ZM1.70713 5.5H4.50232L7.96395 9.5H5.70713L1.70713 5.5ZM18 31C10.8318 31 5.00001 25.1682 5.00001 18C5.00001 15.2881 5.82226 12.7006 7.38038 10.5H8.82926L9.3927 11.1511C7.84738 13.0921 7.00001 15.5086 7.00001 18C7.00001 24.0654 11.9346 29 18 29C24.0654 29 29 24.0654 29 18C29 15.4817 28.1272 13.0203 26.5424 11.0693C26.3683 10.8549 26.0534 10.8223 25.8391 10.9964C25.6248 11.1705 25.5921 11.4854 25.7662 11.6998C27.2067 13.4732 28 15.7106 28 18C28 23.5141 23.514 28 18 28C12.486 28 8.00001 23.5141 8.00001 18C8.00001 15.7978 8.72813 13.6602 10.0596 11.9217L11.4033 13.4744C10.4856 14.8096 10 16.3729 10 18C10 22.4112 13.5888 26 18 26C22.4113 26 26 22.4112 26 18C26 16.2536 25.4472 14.5942 24.4014 13.2012C24.2356 12.9804 23.9222 12.9357 23.7013 13.1015C23.4805 13.2673 23.4359 13.5807 23.6017 13.8015C24.5165 15.0201 25 16.4718 25 18C25 21.8598 21.8598 25 18 25C14.1402 25 11 21.8598 11 18C11 16.6643 11.3738 15.3778 12.0828 14.2595L13.519 15.9191C13.4523 15.9713 13.3977 16.0408 13.3636 16.1249C13.1224 16.7209 13 17.3519 13 18C13 20.757 15.243 23 18 23C20.757 23 23 20.757 23 18C23 17.0061 22.7089 16.0458 22.1584 15.2228C22.0048 14.9933 21.6943 14.9316 21.4648 15.0853C21.2353 15.2388 21.1737 15.5494 21.3273 15.7789C21.7674 16.4368 22 17.2048 22 18C22 20.2056 20.2056 22 18 22C15.7944 22 14 20.2056 14 18C14 17.5421 14.0764 17.0954 14.2267 16.6695C14.531 16.8891 14.8904 16.9992 15.25 16.9992C15.5396 16.9992 15.8289 16.9276 16.0897 16.7851C16.1064 16.8091 16.1251 16.8323 16.1464 16.8536L16.2778 16.9849C16.1016 17.2827 16 17.6296 16 18C16 19.1028 16.8972 20 18 20C19.1028 20 20 19.1028 20 18C20 17.7239 19.7761 17.5 19.5 17.5C19.2239 17.5 19 17.7239 19 18C19 18.5514 18.5514 19 18 19C17.4486 19 17 18.5514 17 18C17 17.9107 17.0129 17.8245 17.0349 17.7421L17.6464 18.3536C17.7441 18.4512 17.872 18.5 18 18.5C18.128 18.5 18.2559 18.4512 18.3536 18.3536C18.5489 18.1583 18.5489 17.8418 18.3536 17.6464L17.7421 17.035C17.8246 17.0129 17.9108 17.0001 18.0001 17.0001C18.2762 17.0001 18.5001 16.7762 18.5001 16.5001C18.5001 16.2239 18.2762 16.0001 18.0001 16.0001C17.6297 16.0001 17.2828 16.1016 16.9849 16.2778L16.8536 16.1464C16.8321 16.1251 16.8091 16.1064 16.7851 16.0897C17.1044 15.5053 17.066 14.7761 16.6695 14.2267C17.0955 14.0764 17.5422 14 18 14C18.7956 14 19.5639 14.2328 20.2219 14.6733C20.3073 14.7304 20.4039 14.7578 20.4996 14.7578C20.6608 14.7578 20.8191 14.6799 20.9155 14.5359C21.0691 14.3064 21.0076 13.9958 20.7781 13.8422C19.955 13.2913 18.9943 13 18 13C17.3518 13 16.7208 13.1224 16.1246 13.3638C16.0406 13.3978 15.9711 13.4523 15.919 13.5189L14.2595 12.0828C15.3778 11.3738 16.6643 11 18 11C19.5289 11 20.9813 11.4839 22.2 12.3995C22.29 12.4671 22.3954 12.4998 22.4999 12.4998C22.6518 12.4998 22.8019 12.4308 22.9001 12.3001C23.0659 12.0793 23.0214 11.7659 22.8006 11.6C21.4074 10.5533 19.7473 10 18 10C16.3729 10 14.8096 10.4856 13.4744 11.4033L11.9216 10.0596C13.6602 8.72819 15.7979 8 18 8C20.2922 8 22.5318 8.79507 24.3063 10.2388C24.5206 10.413 24.8354 10.3806 25.0097 10.1664C25.184 9.95219 25.1516 9.63732 24.9374 9.463C22.9852 7.87469 20.5214 7 18 7C15.5086 7 13.0921 7.84732 11.1511 9.39275L10.5 8.82932V7.38069C12.7008 5.82332 15.293 5 18 5C25.1682 5 31 10.8318 31 18C31 25.1682 25.1683 31 18 31Z" fill="white"/>
</g>
<defs>
<clipPath id="clip0_5533_27611">
<rect width="32" height="32" fill="white"/>
</clipPath>
</defs>
</svg>
