<svg width="32" height="32" viewBox="0 0 32 32" fill="none" xmlns="http://www.w3.org/2000/svg">
<path d="M7.84211 15H22.1579C22.6222 15 23 14.6155 23 14.1429V6.85714C23 6.38454 22.6222 6 22.1579 6H7.84211C7.37779 6 7 6.38454 7 6.85714V14.1429C7 14.6155 7.37779 15 7.84211 15ZM12.8947 14.1429V6.85714H17.1053V14.1429H12.8947ZM22.1579 14.1429H17.9474V6.85714H22.1579V14.1429ZM7.84211 6.85714H12.0526V14.1429H7.84211V6.85714Z" fill="white"/>
<path d="M9.625 18.5C9.41791 18.5 9.25 18.7239 9.25 19C9.25 19.5514 8.91353 20 8.5 20C8.08647 20 7.75 19.5514 7.75 19C7.75 18.4486 8.08647 18 8.5 18C8.70709 18 8.875 17.7761 8.875 17.5C8.875 17.2239 8.70709 17 8.5 17C7.67289 17 7 17.8972 7 19C7 20.1028 7.67289 21 8.5 21C9.32711 21 10 20.1028 10 19C10 18.7239 9.83209 18.5 9.625 18.5Z" fill="white"/>
<path d="M13.625 18.5C13.4179 18.5 13.25 18.7239 13.25 19C13.25 19.5514 12.9135 20 12.5 20C12.0865 20 11.75 19.5514 11.75 19C11.75 18.4486 12.0865 18 12.5 18C12.7071 18 12.875 17.7761 12.875 17.5C12.875 17.2239 12.7071 17 12.5 17C11.6729 17 11 17.8972 11 19C11 20.1028 11.6729 21 12.5 21C13.3271 21 14 20.1028 14 19C14 18.7239 13.8321 18.5 13.625 18.5Z" fill="white"/>
<path d="M17.625 18.5C17.4179 18.5 17.25 18.7239 17.25 19C17.25 19.5514 16.9135 20 16.5 20C16.0865 20 15.75 19.5514 15.75 19C15.75 18.4486 16.0865 18 16.5 18C16.7071 18 16.875 17.7761 16.875 17.5C16.875 17.2239 16.7071 17 16.5 17C15.6729 17 15 17.8972 15 19C15 20.1028 15.6729 21 16.5 21C17.3271 21 18 20.1028 18 19C18 18.7239 17.8321 18.5 17.625 18.5Z" fill="white"/>
<path d="M23 19C23 18.7239 22.8321 18.5 22.625 18.5C22.4179 18.5 22.25 18.7239 22.25 19C22.25 19.5514 21.9135 20 21.5 20C21.0865 20 20.75 19.5514 20.75 19C20.75 18.4486 21.0865 18 21.5 18C21.7071 18 21.875 17.7761 21.875 17.5C21.875 17.2239 21.7071 17 21.5 17C20.6729 17 20 17.8972 20 19C20 20.1028 20.6729 21 21.5 21C22.3271 21 23 20.1028 23 19Z" fill="white"/>
<path d="M28.7 17.75V12.0071C29.4467 11.8124 30 11.1264 30 10.3125C30 9.34754 29.2224 8.5625 28.2667 8.5625C27.3109 8.5625 26.5333 9.34754 26.5333 10.3125C26.5333 11.1265 27.0866 11.8124 27.8333 12.0071V17.75H27.4V16.875C27.4 16.1513 26.8168 15.5625 26.1 15.5625H25.6667V4.1875C25.6667 2.98131 24.6947 2 23.5 2H6.16667C4.97197 2 4 2.98131 4 4.1875V27.8125C4 29.0187 4.97197 30 6.16667 30H23.5C24.6947 30 25.6667 29.0187 25.6667 27.8125V22.5625H26.1C26.8168 22.5625 27.4 21.9737 27.4 21.25V20.375H28.7C29.4168 20.375 30 19.7862 30 19.0625C30 18.3388 29.4168 17.75 28.7 17.75ZM27.4 10.3125C27.4 9.83005 27.7888 9.4375 28.2667 9.4375C28.7445 9.4375 29.1333 9.83005 29.1333 10.3125C29.1333 10.795 28.7445 11.1875 28.2667 11.1875C27.7888 11.1875 27.4 10.795 27.4 10.3125ZM23.5 29.125H6.16667C5.44983 29.125 4.86667 28.5362 4.86667 27.8125V23H20.9C21.1393 23 21.3333 22.8041 21.3333 22.5625C21.3333 22.3209 21.1393 22.125 20.9 22.125H4.86667V4.1875C4.86667 3.46377 5.44983 2.875 6.16667 2.875H23.5C24.2168 2.875 24.8 3.46377 24.8 4.1875V22.125H22.6333C22.394 22.125 22.2 22.3209 22.2 22.5625C22.2 22.8041 22.394 23 22.6333 23H24.8V27.8125C24.8 28.5362 24.2168 29.125 23.5 29.125ZM26.5333 21.25C26.5333 21.4912 26.3389 21.6875 26.1 21.6875H25.6667V16.4375H26.1C26.3389 16.4375 26.5333 16.6338 26.5333 16.875V21.25ZM28.7 19.5H27.4V18.625H28.7C28.9389 18.625 29.1333 18.8213 29.1333 19.0625C29.1333 19.3037 28.9389 19.5 28.7 19.5Z" fill="white"/>
<path d="M17.12 25H7.88C7.39479 25 7 25.4486 7 26V27C7 27.5514 7.39479 28 7.88 28H17.12C17.6052 28 18 27.5514 18 27V26C18 25.4486 17.6052 25 17.12 25ZM17.12 27H7.88V26H17.12V27Z" fill="white"/>
<path d="M23.0909 25H19.9091C19.4078 25 19 25.4486 19 26V27C19 27.5514 19.4078 28 19.9091 28H23.0909C23.5922 28 24 27.5514 24 27V26C24 25.4486 23.5922 25 23.0909 25ZM23.0909 27H19.9091V26H23.0909V27Z" fill="white"/>
<path d="M10.9054 9.73889C10.9093 9.73361 10.9133 9.72833 10.9171 9.72283C10.9213 9.71672 10.9251 9.71039 10.9289 9.704C10.9322 9.69867 10.9355 9.69339 10.9385 9.68789C10.9421 9.68139 10.9454 9.67472 10.9487 9.668C10.9516 9.66217 10.9544 9.65633 10.9571 9.65028C10.96 9.64383 10.9625 9.63728 10.9651 9.63067C10.9677 9.624 10.9702 9.61739 10.9726 9.61061C10.9747 9.60439 10.9766 9.59806 10.9784 9.59172C10.9806 9.58439 10.9828 9.577 10.9847 9.5695C10.9862 9.56322 10.9875 9.55689 10.9888 9.5505C10.9904 9.54289 10.992 9.53528 10.9932 9.52756C10.9943 9.52056 10.9951 9.51356 10.9959 9.5065C10.9968 9.49933 10.9977 9.49222 10.9983 9.48494C10.9989 9.47644 10.9991 9.46794 10.9993 9.45939C10.9995 9.45439 11 9.44944 11 9.44444C11 9.44339 10.9999 9.44239 10.9999 9.44139C10.9998 9.43167 10.9992 9.42194 10.9986 9.41222C10.9984 9.40728 10.9983 9.40222 10.9978 9.39733C10.997 9.38756 10.9955 9.37783 10.9941 9.36811C10.9934 9.36344 10.993 9.35861 10.9922 9.354C10.9906 9.34494 10.9884 9.336 10.9863 9.32706C10.9851 9.322 10.9843 9.31678 10.983 9.31183C10.9811 9.30456 10.9786 9.29744 10.9763 9.29028C10.9744 9.28389 10.9726 9.27739 10.9704 9.27117C10.9685 9.266 10.9662 9.26094 10.9641 9.25583C10.961 9.24783 10.958 9.23972 10.9544 9.232C10.9524 9.22772 10.95 9.22361 10.9479 9.21939C10.9438 9.211 10.9397 9.20261 10.935 9.19461C10.9327 9.1905 10.9299 9.18661 10.9274 9.18261C10.9226 9.17478 10.9178 9.16694 10.9125 9.1595C10.912 9.15878 10.9116 9.158 10.9111 9.15728C10.9083 9.15339 10.9052 9.14994 10.9023 9.14617C10.8974 9.13983 10.8927 9.13344 10.8875 9.12744C10.8831 9.12228 10.8784 9.11756 10.8738 9.11272C10.8694 9.108 10.865 9.10328 10.8604 9.09883C10.8551 9.09383 10.8497 9.08922 10.8443 9.08461C10.8398 9.08078 10.8355 9.07694 10.8309 9.07333C10.8253 9.069 10.8196 9.06506 10.8139 9.06111C10.809 9.05772 10.8042 9.05433 10.7992 9.05122C10.7937 9.04778 10.7881 9.04472 10.7825 9.04167C10.7769 9.03861 10.7714 9.03556 10.7657 9.03283C10.7604 9.03028 10.755 9.02806 10.7495 9.02583C10.7434 9.02328 10.7373 9.02067 10.731 9.0185C10.7256 9.01661 10.7201 9.01511 10.7147 9.01356C10.7083 9.01172 10.702 9.00983 10.6955 9.00833C10.6895 9.00694 10.6834 9.00606 10.6773 9.00506C10.6714 9.00406 10.6655 9.00294 10.6595 9.00228C10.652 9.00144 10.6446 9.00122 10.637 9.00094C10.6331 9.00056 10.6291 9 10.625 9H8.375C8.16791 9 8 9.199 8 9.44444V9.88889C8 10.1343 8.16791 10.3333 8.375 10.3333C8.58209 10.3333 8.75 10.1343 8.75 9.88889H9.81697C9.4828 10.4754 9.125 11.3777 9.125 12.5556C9.125 12.801 9.29291 13 9.5 13C9.70709 13 9.875 12.801 9.875 12.5556C9.875 10.8196 10.8251 9.82683 10.8684 9.78256C10.8716 9.77928 10.8744 9.77572 10.8775 9.77233C10.8828 9.76667 10.8881 9.761 10.893 9.755C10.8973 9.74978 10.9013 9.74433 10.9054 9.73889Z" fill="white"/>
<path d="M15.9054 9.73889C15.9093 9.73361 15.9133 9.72833 15.9171 9.72283C15.9213 9.71672 15.9251 9.71039 15.9289 9.704C15.9322 9.69867 15.9355 9.69339 15.9385 9.68789C15.9421 9.68139 15.9454 9.67472 15.9487 9.668C15.9516 9.66217 15.9544 9.65633 15.9571 9.65028C15.96 9.64383 15.9625 9.63728 15.9651 9.63067C15.9677 9.624 15.9702 9.61739 15.9726 9.61061C15.9747 9.60439 15.9766 9.59806 15.9784 9.59172C15.9806 9.58439 15.9828 9.577 15.9847 9.5695C15.9862 9.56322 15.9875 9.55689 15.9888 9.5505C15.9904 9.54289 15.992 9.53528 15.9932 9.52756C15.9943 9.52056 15.9951 9.51356 15.9959 9.5065C15.9968 9.49933 15.9977 9.49222 15.9983 9.48494C15.9989 9.47644 15.9991 9.46794 15.9993 9.45939C15.9995 9.45439 16 9.44944 16 9.44444C16 9.44339 15.9999 9.44239 15.9999 9.44139C15.9998 9.43167 15.9992 9.42194 15.9986 9.41222C15.9984 9.40728 15.9983 9.40222 15.9978 9.39733C15.997 9.38756 15.9955 9.37783 15.9941 9.36811C15.9934 9.36344 15.993 9.35861 15.9922 9.354C15.9906 9.34494 15.9884 9.336 15.9863 9.32706C15.9851 9.322 15.9843 9.31678 15.983 9.31183C15.9811 9.30456 15.9786 9.29744 15.9763 9.29028C15.9744 9.28389 15.9726 9.27739 15.9704 9.27117C15.9685 9.266 15.9662 9.26094 15.9641 9.25583C15.961 9.24783 15.958 9.23972 15.9544 9.232C15.9524 9.22772 15.95 9.22361 15.9479 9.21939C15.9438 9.211 15.9397 9.20261 15.935 9.19461C15.9327 9.1905 15.9299 9.18661 15.9274 9.18261C15.9226 9.17478 15.9178 9.16694 15.9125 9.1595C15.912 9.15878 15.9116 9.158 15.9111 9.15728C15.9083 9.15339 15.9052 9.14994 15.9023 9.14617C15.8974 9.13983 15.8927 9.13344 15.8875 9.12744C15.8831 9.12228 15.8784 9.11756 15.8738 9.11272C15.8694 9.108 15.865 9.10328 15.8604 9.09883C15.8552 9.09383 15.8497 9.08928 15.8443 9.08461C15.8399 9.08078 15.8355 9.07689 15.8309 9.07333C15.8253 9.069 15.8196 9.06511 15.814 9.06117C15.8091 9.05778 15.8042 9.05433 15.7992 9.05122C15.7937 9.04778 15.7881 9.04478 15.7825 9.04167C15.7769 9.03861 15.7714 9.03556 15.7657 9.03278C15.7604 9.03022 15.755 9.02806 15.7496 9.02583C15.7435 9.02322 15.7373 9.02067 15.731 9.01844C15.7256 9.01656 15.7202 9.01511 15.7148 9.0135C15.7084 9.01167 15.7021 9.00972 15.6955 9.00828C15.6895 9.00689 15.6835 9.006 15.6774 9.005C15.6715 9.004 15.6655 9.00289 15.6595 9.00222C15.6521 9.00139 15.6446 9.00117 15.6371 9.00089C15.6331 9.00056 15.6291 9 15.625 9H13.375C13.1679 9 13 9.199 13 9.44444V9.88889C13 10.1343 13.1679 10.3333 13.375 10.3333C13.5821 10.3333 13.75 10.1343 13.75 9.88889H14.817C14.4828 10.4754 14.125 11.3777 14.125 12.5556C14.125 12.801 14.2929 13 14.5 13C14.7071 13 14.875 12.801 14.875 12.5556C14.875 10.8196 15.8251 9.82683 15.8684 9.78256C15.8716 9.77928 15.8744 9.77572 15.8775 9.77233C15.8828 9.76667 15.8881 9.761 15.893 9.755C15.8973 9.74978 15.9013 9.74433 15.9054 9.73889Z" fill="white"/>
<path d="M18.375 10.3333C18.5821 10.3333 18.75 10.1343 18.75 9.88889H19.817C19.4828 10.4754 19.125 11.3777 19.125 12.5556C19.125 12.801 19.2929 13 19.5 13C19.7071 13 19.875 12.801 19.875 12.5556C19.875 10.8196 20.8251 9.82683 20.8684 9.78256C20.8716 9.77928 20.8744 9.77572 20.8775 9.77233C20.8828 9.76667 20.8881 9.761 20.893 9.755C20.8973 9.74978 20.9013 9.74433 20.9054 9.73889C20.9093 9.73361 20.9133 9.72833 20.9171 9.72283C20.9212 9.71672 20.9251 9.71039 20.9289 9.704C20.9322 9.69867 20.9355 9.69339 20.9385 9.68789C20.9421 9.68139 20.9454 9.67472 20.9487 9.668C20.9516 9.66217 20.9544 9.65633 20.9571 9.65028C20.96 9.64383 20.9625 9.63728 20.9651 9.63067C20.9677 9.624 20.9702 9.61739 20.9726 9.61061C20.9747 9.60439 20.9766 9.59806 20.9784 9.59172C20.9806 9.58439 20.9828 9.577 20.9847 9.5695C20.9862 9.56322 20.9875 9.55689 20.9888 9.5505C20.9904 9.54289 20.992 9.53528 20.9932 9.52756C20.9943 9.52056 20.9951 9.51356 20.9959 9.5065C20.9968 9.49933 20.9977 9.49222 20.9983 9.48494C20.9989 9.47644 20.9991 9.46794 20.9993 9.45939C20.9995 9.45439 21 9.44944 21 9.44444C21 9.44339 20.9999 9.44239 20.9999 9.44139C20.9998 9.43167 20.9992 9.42194 20.9986 9.41222C20.9984 9.40728 20.9983 9.40222 20.9978 9.39733C20.997 9.38756 20.9955 9.37783 20.9941 9.36811C20.9934 9.36344 20.993 9.35861 20.9922 9.354C20.9906 9.34494 20.9884 9.336 20.9863 9.32706C20.9851 9.322 20.9843 9.31678 20.983 9.31183C20.9811 9.30456 20.9786 9.29744 20.9763 9.29028C20.9744 9.28389 20.9726 9.27739 20.9704 9.27117C20.9685 9.266 20.9662 9.26094 20.9641 9.25583C20.961 9.24783 20.958 9.23972 20.9544 9.232C20.9524 9.22772 20.95 9.22361 20.9479 9.21939C20.9438 9.211 20.9397 9.20261 20.935 9.19461C20.9327 9.1905 20.9299 9.18661 20.9274 9.18261C20.9226 9.17478 20.9178 9.16694 20.9125 9.1595C20.912 9.15878 20.9116 9.158 20.9111 9.15728C20.9083 9.15333 20.9051 9.14989 20.9022 9.14611C20.8974 9.13983 20.8926 9.13344 20.8875 9.1275C20.883 9.12228 20.8783 9.1175 20.8737 9.11256C20.8693 9.10794 20.865 9.10322 20.8604 9.09883C20.8551 9.09378 20.8496 9.08917 20.8442 9.0845C20.8398 9.08072 20.8355 9.07689 20.8309 9.07333C20.8253 9.06894 20.8196 9.065 20.8138 9.061C20.809 9.05767 20.8042 9.05428 20.7992 9.05117C20.7937 9.04772 20.788 9.04461 20.7824 9.0415C20.7769 9.0385 20.7714 9.03544 20.7658 9.03272C20.7604 9.03017 20.755 9.02794 20.7495 9.02567C20.7434 9.02311 20.7373 9.02056 20.731 9.01833C20.7256 9.01644 20.7201 9.01494 20.7146 9.01333C20.7083 9.0115 20.702 9.00961 20.6955 9.00817C20.6895 9.00678 20.6834 9.00589 20.6773 9.00483C20.6714 9.00383 20.6655 9.00272 20.6595 9.00211C20.652 9.00128 20.6446 9.00106 20.637 9.00078C20.6331 9.00056 20.6291 9 20.625 9H18.375C18.1679 9 18 9.199 18 9.44444V9.88889C18 10.1343 18.1679 10.3333 18.375 10.3333Z" fill="white"/>
</svg>
