<svg width="32" height="32" viewBox="0 0 32 32" fill="none" xmlns="http://www.w3.org/2000/svg">
<g clip-path="url(#clip0_5533_27617)">
<path d="M27.3137 4.68625C24.2917 1.66425 20.2738 0 16 0C11.7262 0 7.70831 1.66425 4.68625 4.68625C1.66419 7.70825 0 11.7262 0 16C0 20.2738 1.66425 24.2917 4.68625 27.3137C7.70825 30.3358 11.7262 32 16 32C20.2738 32 24.2917 30.3357 27.3137 27.3137C30.3358 24.2917 32 20.2738 32 16C32 11.7262 30.3357 7.70831 27.3137 4.68625ZM29.2393 23.0664L26.6312 21.5606C27.4317 20.0362 27.9137 18.3198 27.9888 16.5H30.9908C30.9152 18.8263 30.3129 21.0612 29.2393 23.0664ZM15.5 27.9888V30.9909C13.1737 30.9152 10.9388 30.3129 8.93363 29.2394L10.4394 26.6313C11.9638 27.4318 13.6801 27.9138 15.5 27.9888ZM16.5 27.9888C18.3199 27.9138 20.0362 27.4318 21.5606 26.6313L23.0664 29.2394C21.0612 30.3129 18.8263 30.9152 16.5 30.9909V27.9888ZM16 27C9.93456 27 5 22.0654 5 16C5 9.93456 9.93456 5 16 5C22.0654 5 27 9.93456 27 16C27 22.0654 22.0654 27 16 27ZM1.00912 16.5H4.01119C4.08619 18.3199 4.56825 20.0362 5.36875 21.5606L2.76062 23.0664C1.68712 21.0612 1.08481 18.8263 1.00912 16.5ZM2.76069 8.93363L5.36881 10.4394C4.56825 11.9638 4.08619 13.6801 4.01119 15.5H1.00912C1.08481 13.1737 1.68713 10.9388 2.76069 8.93363ZM16.5 4.01119V1.00912C18.8263 1.08481 21.0612 1.68706 23.0664 2.76062L21.5606 5.36875C20.0362 4.56825 18.3199 4.08619 16.5 4.01119ZM15.5 4.01119C13.6801 4.08619 11.9638 4.56825 10.4394 5.36875L8.93363 2.76062C10.9388 1.68712 13.1737 1.08481 15.5 1.00912V4.01119ZM27.9888 15.5C27.9138 13.6801 27.4318 11.9638 26.6313 10.4394L29.2394 8.93363C30.3129 10.9388 30.9152 13.1737 30.9909 15.5H27.9888ZM28.7372 8.06881L26.1301 9.574C25.1821 8.08481 23.9151 6.81787 22.426 5.86987L23.9312 3.26275C24.8897 3.86219 25.7874 4.57419 26.6066 5.39337C27.4258 6.21256 28.1378 7.11025 28.7372 8.06881ZM5.39337 5.39337C6.21256 4.57419 7.11025 3.86212 8.06875 3.26275L9.57394 5.86987C8.08475 6.81787 6.81781 8.08488 5.86981 9.574L3.26269 8.06881C3.86219 7.11025 4.57419 6.21256 5.39337 5.39337ZM3.26275 23.9312L5.86987 22.426C6.81787 23.9152 8.08488 25.1821 9.574 26.1301L8.06881 28.7372C7.11025 28.1378 6.21263 27.4258 5.39344 26.6066C4.57419 25.7874 3.86219 24.8897 3.26275 23.9312ZM26.6066 26.6066C25.7874 27.4258 24.8897 28.1379 23.9312 28.7372L22.4261 26.1301C23.9152 25.1821 25.1822 23.9151 26.1302 22.426L28.7373 23.9312C28.1378 24.8897 27.4258 25.7874 26.6066 26.6066Z" fill="white"/>
<path d="M22.8987 10.7947C23.0238 10.931 23.1946 11 23.366 11C23.5192 11 23.6729 10.9447 23.7947 10.833C24.0527 10.5961 24.0698 10.1949 23.833 9.93694C23.5884 9.6705 23.3293 9.41144 23.063 9.16696C22.805 8.93017 22.4038 8.94729 22.167 9.20533C21.9301 9.46336 21.9473 9.86449 22.2053 10.1014C22.4451 10.3214 22.6784 10.5547 22.8987 10.7947Z" fill="white"/>
<path d="M7.00007 16.303C7.00007 11.19 11.0378 7.0303 16.0007 7.0303C17.4883 7.0303 18.962 7.41184 20.2628 8.13363C20.5059 8.26853 20.8092 8.17491 20.9401 7.92435C21.0711 7.67386 20.9801 7.36142 20.737 7.22651C19.2911 6.4241 17.6533 6 16.0007 6C10.4863 6 6 10.6219 6 16.303C6 18.6691 6.79793 20.9802 8.24686 22.8104C8.34574 22.9353 8.48956 23 8.6347 23C8.74577 23 8.85759 22.962 8.95041 22.884C9.16442 22.7042 9.19643 22.3797 9.02191 22.1592C7.71807 20.5123 7.00007 18.4325 7.00007 16.303Z" fill="white"/>
<path d="M24.7725 11.2629C24.6375 11.0198 24.3251 10.929 24.0746 11.0599C23.8241 11.1909 23.7305 11.4942 23.8655 11.7373C24.5879 13.0382 24.9697 14.5124 24.9697 16.0004C24.9697 20.9628 20.81 25 15.6971 25C13.5675 25 11.4877 24.2821 9.84076 22.9783C9.62034 22.8038 9.29579 22.8358 9.11594 23.0498C8.93616 23.2638 8.96906 23.5787 9.18961 23.7533C11.0199 25.2021 13.3309 26 15.6971 26C21.3781 26 26 21.5142 26 16.0004C26 14.3473 25.5755 12.7091 24.7725 11.2629Z" fill="white"/>
<path d="M19.7742 20.6935C20.6605 20.6935 21.4868 20.3414 22.1009 19.702C22.7147 19.0629 23.033 18.2223 22.9973 17.3349C22.9312 15.6974 21.5985 14.3412 19.9633 14.2474C18.8774 14.1851 17.8457 14.6742 17.2038 15.5231C17.2255 15.4502 17.2485 15.3775 17.2727 15.3052C17.3015 15.2191 17.3674 15.1462 17.4581 15.1002C18.602 14.5196 19.2937 13.3171 19.2203 12.0367C19.1265 10.4014 17.7704 9.06869 16.1329 9.00264C15.2449 8.96746 14.4048 9.28522 13.7658 9.89899C13.1264 10.5131 12.7742 11.3394 12.7742 12.2257C12.7742 13.4472 13.4531 14.5494 14.5458 15.1022C14.6339 15.1467 14.698 15.2179 14.7264 15.3026C14.7509 15.3757 14.7742 15.4492 14.7962 15.5231C14.1543 14.6743 13.1234 14.1851 12.0367 14.2474C10.4014 14.3412 9.0687 15.6974 9.00271 17.3349C8.96697 18.2223 9.28529 19.0629 9.89912 19.702C10.5132 20.3414 11.3395 20.6935 12.2258 20.6935C13.2513 20.6935 14.1941 20.2139 14.797 19.4126C14.4934 20.4312 13.9527 21.377 13.2171 22.1571C13.0803 22.3023 13.0428 22.515 13.1219 22.6982C13.2009 22.8814 13.3813 23 13.5809 23H18.4191C18.6187 23 18.7991 22.8814 18.8781 22.6982C18.9572 22.515 18.9197 22.3023 18.7829 22.1571C18.0473 21.377 17.5067 20.4312 17.203 19.4126C17.8059 20.2139 18.7487 20.6935 19.7742 20.6935ZM13.7741 12.2257C13.7741 11.6141 14.0171 11.0439 14.4583 10.6201C14.8769 10.218 15.421 9.99973 15.9995 9.99973C16.0304 9.99973 16.0616 10.0004 16.0927 10.0016C17.2221 10.0472 18.1574 10.9662 18.2222 12.0939C18.2729 12.9777 17.7954 13.8077 17.0056 14.2085C16.6793 14.3742 16.4374 14.651 16.3246 14.9879C16.1757 15.4327 16.0669 15.8904 16.0001 16.3535C15.9329 15.8894 15.8238 15.4305 15.6745 14.9848C15.562 14.6492 15.3215 14.3741 14.9972 14.21C14.2427 13.8283 13.7741 13.068 13.7741 12.2257ZM17.3656 22.0002H14.6344C15.3509 20.9883 15.8229 19.813 16 18.586C16.1771 19.813 16.6491 20.9883 17.3656 22.0002ZM17.0068 17.7913C16.8698 17.746 16.7272 17.7031 16.5828 17.6637C16.5395 17.6519 16.4953 17.6461 16.4514 17.6461C16.3352 17.6461 16.2211 17.6866 16.13 17.7631C16.0743 17.8098 16.0304 17.8673 16 17.931C15.9696 17.8673 15.9257 17.8098 15.87 17.7631C15.7445 17.6577 15.5752 17.6207 15.4172 17.6637C15.2728 17.7031 15.1302 17.746 14.9931 17.7913C14.6545 17.9033 14.3751 18.1471 14.2064 18.4777C13.8236 19.2277 13.0647 19.6936 12.2258 19.6936C11.6142 19.6936 11.044 19.4506 10.6202 19.0093C10.1967 18.5684 9.97704 17.988 10.0018 17.375C10.0473 16.2456 10.9663 15.3102 12.0941 15.2455C12.9759 15.1945 13.8054 15.671 14.2068 16.4584C14.375 16.7883 14.6536 17.0316 14.9914 17.1434C15.1285 17.1888 15.2716 17.2319 15.4169 17.2716C15.5751 17.3146 15.7445 17.2775 15.8701 17.1721C15.9258 17.1253 15.9697 17.0678 16 17.004C16.0304 17.0678 16.0742 17.1253 16.1299 17.1721C16.2555 17.2775 16.4248 17.3148 16.5831 17.2716C16.7284 17.2319 16.8715 17.1888 17.0084 17.1435C17.3463 17.0317 17.625 16.7883 17.7934 16.4582C18.1948 15.671 19.024 15.1951 19.9061 15.2456C21.0338 15.3102 21.9528 16.2457 21.9983 17.3751C22.0231 17.9881 21.8034 18.5685 21.3799 19.0094C20.9561 19.4506 20.3859 19.6936 19.7743 19.6936C18.9354 19.6936 18.1765 19.2277 17.7937 18.4777C17.625 18.1472 17.3455 17.9034 17.0068 17.7913Z" fill="white"/>
</g>
<defs>
<clipPath id="clip0_5533_27617">
<rect width="32" height="32" fill="white"/>
</clipPath>
</defs>
</svg>
